<svg xmlns="http://www.w3.org/2000/svg" viewBox="0 0 519.88 335.33"><defs><style>.cls-1{fill:none;stroke:#000;stroke-miterlimit:10;stroke-width:7px;}</style></defs><g id="Layer_2" data-name="Layer 2"><g id="comments"><path class="cls-1" d="M49.25,167.59A66.26,66.26,0,0,1,70.19,155"/><path class="cls-1" d="M27,214.35c-.05,1-.07,2-.07,3a66.49,66.49,0,0,0,37.84,60"/><path class="cls-1" d="M113,153.78a66.52,66.52,0,0,1-4.52,128.33"/><path class="cls-1" d="M47.88,194.83c-5.46,13.28-15.54,26.44-19.89,20-4.11-6-3.57-14.77,1.89-28s11-16,17.9-20C54.44,162.87,53.35,181.55,47.88,194.83Z"/><ellipse class="cls-1" cx="91.88" cy="156.83" rx="22" ry="11"/><ellipse class="cls-1" cx="87.88" cy="194.33" rx="11.5" ry="22" transform="translate(-125.33 189) rotate(-64.23)"/><circle class="cls-1" cx="124.38" cy="183.33" r="7.5"/><ellipse class="cls-1" cx="130.88" cy="242.83" rx="21" ry="8" transform="translate(-117.39 122.59) rotate(-35.83)"/><ellipse class="cls-1" cx="64.38" cy="251.83" rx="7" ry="17.5" transform="translate(-193.01 215.57) rotate(-67.64)"/><path class="cls-1" d="M112.88,280.83c-.38,5.23-17.3,9-28,7-12.48-2.36-22.38-5.77-22-11s11-4.9,23.7-4S113.27,275.6,112.88,280.83Z"/><path class="cls-1" d="M28.52,215.07c-.55.23-1.09.46-1.62.7-15.37,6.78-24.38,13.1-23.32,17.32,1,4,11,5.38,26.39,4.36h0c16.44-1.08,39.09-4.89,63.69-11.09,26.63-6.71,49.92-14.82,64.91-22.12,11.85-5.76,18.52-11,17.6-14.67-1-3.86-10.21-5.27-24.62-4.47"/><circle class="cls-1" cx="403.13" cy="218.58" r="113.25"/><path class="cls-1" d="M489.82,145.72a187.83,187.83,0,0,1-31.9,76.12C424.21,269.62,373.3,296.78,323.41,299"/><polyline class="cls-1" points="157.88 92.83 151.88 111.83 140.04 145.78 178.88 108.83 208.88 107.83 208.88 55.83 87.88 55.83 87.88 106.67 153.88 106.83"/><path class="cls-1" d="M315.89,73.8c1,0,2.07,0,3.12,0,50.36,0,91.19-15.75,91.19-35.17S369.37,3.5,319,3.5s-91.19,15.75-91.19,35.16c0,13.07,18.49,24.48,45.92,30.53l41.14,49.64Z"/></g></g></svg>