<svg xmlns="http://www.w3.org/2000/svg" viewBox="0 0 422.78 299.5"><defs><style>.cls-1{fill:none;stroke:#000;stroke-miterlimit:10;stroke-width:7px;}</style></defs><g id="Layer_2" data-name="Layer 2"><g id="Layer_21" data-name="Layer 21"><polygon class="cls-1" points="272.32 285.36 358.41 285.36 362.28 230.5 344.03 234.03 269.28 248.5 272.32 285.36"/><circle class="cls-1" cx="303.28" cy="179.5" r="33"/><circle class="cls-1" cx="394.28" cy="100.5" r="25"/><circle class="cls-1" cx="315.28" cy="23.5" r="20"/><circle class="cls-1" cx="229.28" cy="93.5" r="19"/><circle class="cls-1" cx="170.78" cy="101" r="12.5"/><circle class="cls-1" cx="242.28" cy="147.5" r="13"/><path class="cls-1" d="M158.28,101,147.7,141.76a2.47,2.47,0,0,0,4.32,2.16L178.3,111"/><path class="cls-1" d="M229.79,143.69l-23.46,35a2.47,2.47,0,0,0,3.36,3.47l35.7-22.41"/><line class="cls-1" x1="178.3" y1="91.03" x2="212.79" y2="84.06"/><line class="cls-1" x1="183.28" y1="101" x2="210.34" y2="95.01"/><line class="cls-1" x1="229.28" y1="112.5" x2="234.3" y2="137.24"/><line class="cls-1" x1="244.87" y1="133.6" x2="240.04" y2="108.8"/><line class="cls-1" x1="236.71" y1="76.01" x2="295.28" y2="23.5"/><line class="cls-1" x1="246.52" y1="85.53" x2="300.27" y2="36.71"/><line class="cls-1" x1="335.01" y1="26.77" x2="384.27" y2="77.59"/><line class="cls-1" x1="372.34" y1="88.5" x2="327.19" y2="39.57"/><line class="cls-1" x1="369.4" y1="98" x2="311.36" y2="147.5"/><line class="cls-1" x1="390.92" y1="125.27" x2="335.96" y2="174.97"/><line class="cls-1" x1="283.44" y1="205.87" x2="281.15" y2="246.2"/><line class="cls-1" x1="333.04" y1="193.77" x2="340.38" y2="234.74"/><circle class="cls-1" cx="303.78" cy="180" r="13"/><circle class="cls-1" cx="179.28" cy="243.5" r="52.5"/><line class="cls-1" x1="0.04" y1="193" x2="179.28" y2="191"/><line class="cls-1" x1="0.04" y1="296" x2="183.28" y2="295.85"/><circle class="cls-1" cx="48.78" cy="244" r="22"/><circle class="cls-1" cx="179.78" cy="244" r="22"/><rect class="cls-1" x="159.78" y="161" width="29" height="29"/></g></g></svg>