<svg xmlns="http://www.w3.org/2000/svg" viewBox="0 0 135 203"><defs><style>.cls-1{fill:none;stroke:#000;stroke-miterlimit:10;stroke-width:7px;}</style></defs><g id="Layer_2" data-name="Layer 2"><g id="logic"><circle class="cls-1" cx="67.5" cy="67.5" r="64"/><path class="cls-1" d="M48.22,152c-7.16,1.2-11.72,3-11.72,5,0,2.32,6.06,4.35,15.18,5.5a141.51,141.51,0,0,0,17.32,1,141.51,141.51,0,0,0,17.32-1c9.12-1.15,15.18-3.18,15.18-5.5,0-2-4.56-3.8-11.72-5"/><path class="cls-1" d="M51.68,141.5c-9.12,1.15-15.18,3.18-15.18,5.5,0,2,4.56,3.8,11.72,5A131.9,131.9,0,0,0,69,153.5,131.9,131.9,0,0,0,89.78,152c7.16-1.2,11.72-3,11.72-5,0-2.32-6.06-4.35-15.18-5.5"/><path class="cls-1" d="M54.51,130.18c-10.68,1.07-18,3.27-18,5.82,0,2.32,6.06,4.35,15.18,5.5a141.51,141.51,0,0,0,17.32,1,141.51,141.51,0,0,0,17.32-1c9.12-1.15,15.18-3.18,15.18-5.5,0-2.71-8.31-5-20.13-6"/><path class="cls-1" d="M51.68,162.5c-9.12,1.15-15.18,3.18-15.18,5.5s6.06,4.35,15.18,5.5a141.51,141.51,0,0,0,17.32,1,141.51,141.51,0,0,0,17.32-1c9.12-1.15,15.18-3.18,15.18-5.5s-6.06-4.35-15.18-5.5"/><path class="cls-1" d="M51.68,173.5c-9.12,1.15-15.18,3.18-15.18,5.5,0,2.58,7.49,4.8,18.35,5.85,4.27.42,9.07.65,14.15.65a145.91,145.91,0,0,0,16-.84c9.84-1.12,16.48-3.23,16.48-5.66s-6.06-4.35-15.18-5.5"/><path class="cls-1" d="M85,184.66A7.38,7.38,0,0,1,86.5,189c0,5.8-7.39,10.5-16.5,10.5S53.5,194.8,53.5,189a7.28,7.28,0,0,1,1.35-4.15"/><line class="cls-1" x1="63.06" y1="131.34" x2="40.5" y2="49.5"/><line class="cls-1" x1="75.31" y1="131.03" x2="91.41" y2="49.5"/><polyline class="cls-1" points="44.98 65.77 56.5 51.5 64.5 66.5 73.5 53.5 78.5 66.5 90.06 56.38"/></g></g></svg>