<svg xmlns="http://www.w3.org/2000/svg" viewBox="0 0 390.76 413.19"><defs><style>.cls-1{fill:none;stroke:#000;stroke-miterlimit:10;stroke-width:20px;}</style></defs><g id="Layer_2" data-name="Layer 2"><g id="Layer_9" data-name="Layer 9"><path class="cls-1" d="M64.41,213.69s9,14.53,16.84,23.62,9.5,17.25,9.5,17.25a41,41,0,0,1-2.41,18.87c-3.8,10.17-5,17.15-3.66,21.88S58.19,266.87,56.4,261.13a62.08,62.08,0,0,1-2.09-23.07C55.21,229.85,64.41,213.69,64.41,213.69Z"/><path class="cls-1" d="M235.27,309.55s-17.07.43-29-1.21-19.63,1.46-19.63,1.46a40.8,40.8,0,0,0-14.5,12.32c-6.45,8.74-11.63,13.58-16.34,15s38.3,6.66,44.08,5a61.74,61.74,0,0,0,20.47-10.85C226.74,326.08,235.27,309.55,235.27,309.55Z"/><path class="cls-1" d="M279.4,304.65l0,.08q-1.25,4.23-2.76,8.32a137.51,137.51,0,1,1-202-164"/><polyline class="cls-1" points="276.62 313.05 279.37 304.73 279.4 304.65 365.21 45.37 252.79 177.19 238.9 193.48 238.92 162.9 238.92 154.65 234.28 158.95 169 219.61 181.07 132.32 191.32 58.15 74.65 149.06 52.19 166.57"/></g></g></svg>