<svg xmlns="http://www.w3.org/2000/svg" viewBox="0 0 82.14 82.75"><defs><style>.cls-1{fill:#020302;}</style></defs><g id="Layer_2" data-name="Layer 2"><g id="logo-sm"><path d="M31.82,82.25a31.56,31.56,0,0,1-6.48-.68A31.3,31.3,0,0,1,10.1,28.39L41.27,4.1,39.06,20l-3,21.57L52.43,26.42v9.19l4.09-4.81L80.87,2.27,61.79,59.88v0l-.61,1.84A31.36,31.36,0,0,1,31.82,82.25Z"/><path class="cls-1" d="M79.59,4.54,61.34,59.65l0,.16-.59,1.75A30.86,30.86,0,0,1,31.82,81.75a31.21,31.21,0,0,1-6.38-.67,30.8,30.8,0,0,1-15-52.29l5.15-4,25-19.52L38.56,20,35.77,40.15l-.38,2.78,2-1.91L51.93,27.57V37l1.76-2.07,3.21-3.77L79.59,4.54M82.14,0l-26,30.48-3.21,3.77v-9l-1.07,1-15.1,14,2.79-20.18L41.93,3l-27,21L9.75,28A31.8,31.8,0,1,0,61.65,61.9L62.29,60v0L82.14,0Z"/></g></g></svg>