<svg xmlns="http://www.w3.org/2000/svg" viewBox="0 0 372.98 385.51"><defs><style>.cls-1{fill:none;stroke:#000;stroke-miterlimit:10;stroke-width:10px;}</style></defs><g id="Layer_2" data-name="Layer 2"><g id="Layer_9" data-name="Layer 9"><path class="cls-1" d="M59.41,191s9,14.53,16.84,23.62,9.5,17.24,9.5,17.24a41,41,0,0,1-2.41,18.88c-3.8,10.17-5,17.15-3.66,21.88S53.19,244.18,51.4,238.45a62.08,62.08,0,0,1-2.09-23.07C50.21,207.17,59.41,191,59.41,191Z"/><path class="cls-1" d="M230.27,286.87s-17.07.42-29-1.22-19.63,1.46-19.63,1.46a40.9,40.9,0,0,0-14.5,12.33c-6.45,8.73-11.63,13.57-16.34,15s38.3,6.66,44.08,5a62.12,62.12,0,0,0,20.47-10.85C221.74,303.39,230.27,286.87,230.27,286.87Z"/><path class="cls-1" d="M274.4,282l0,.09q-1.25,4.23-2.76,8.32a137.51,137.51,0,1,1-202-164"/><polyline class="cls-1" points="271.62 290.37 274.37 282.05 274.4 281.96 360.21 22.68 247.79 154.51 233.9 170.79 233.92 140.22 233.92 131.96 229.28 136.27 164 196.92 176.07 109.63 186.32 35.46 69.65 126.38 47.19 143.89"/></g></g></svg>