<svg xmlns="http://www.w3.org/2000/svg" viewBox="0 0 165.95 208.99"><defs><style>.cls-1{fill:none;stroke:#000;stroke-miterlimit:10;stroke-width:7px;}</style></defs><g id="Layer_2" data-name="Layer 2"><g id="memory"><path class="cls-1" d="M8.1,205.49H151.81s12.94-14.19,0-27.19L8.1,178.15C-2.25,165.3,8.1,154,8.1,154H151.81c23.94-16.73,0-33.48,0-33.48H8.1c-4.35-11.25,0-19.84,0-19.84H151.81"/><path class="cls-1" d="M139.47,100.71c-7.72,9.59,0,19.84,0,19.84"/><path class="cls-1" d="M18.1,120.55a46,46,0,0,1,0,32.55"/><path class="cls-1" d="M143.27,154c-10.52,12.27,0,24.26,0,24.26"/><path class="cls-1" d="M22.72,178.16a31.91,31.91,0,0,1-1.67,27.33"/><polygon class="cls-1" points="3.5 3.5 3.5 77.65 79.48 77.65 150 77.65 150 3.5 3.5 3.5"/><line class="cls-1" x1="79.32" y1="3.5" x2="79.48" y2="77.65"/><line class="cls-1" x1="15.67" y1="3.5" x2="15.67" y2="77.65"/><line class="cls-1" x1="137.76" y1="5.05" x2="137.76" y2="77.65"/></g></g></svg>