<svg xmlns="http://www.w3.org/2000/svg" viewBox="0 0 698.69 381.15"><defs><style>.cls-1{fill:#020302;}.cls-2{fill:none;stroke:#020302;stroke-miterlimit:10;stroke-width:7px;}</style></defs><g id="Layer_2" data-name="Layer 2"><g id="portal"><path d="M200.5,265.9c53.12,0,103,4.06,140.42,11.44,17.61,3.46,31.92,7.63,41.37,12,9.61,4.47,11.71,8,11.71,9s-2.1,4.55-11.71,9c-9.45,4.4-23.76,8.56-41.37,12-37.44,7.38-87.3,11.44-140.42,11.44s-103-4.06-140.42-11.44c-17.61-3.47-31.92-7.63-41.37-12C9.1,303,7,299.39,7,298.4s2.1-4.56,11.71-9c9.45-4.4,23.76-8.57,41.37-12C97.52,270,147.38,265.9,200.5,265.9m0-7C89.77,258.9,0,276.58,0,298.4s89.77,39.5,200.5,39.5S401,320.21,401,298.4s-89.77-39.5-200.5-39.5Z"/><path d="M688.65,47.65v7a3,3,0,0,1,1.47.29c.82.57,2.56,4.32.81,14.77-1.73,10.29-6.4,24.43-13.52,40.91-15.13,35-40,78.42-70.13,122.19-27.43,39.9-56.68,76.35-82.37,102.63C497,364,479.47,374.15,472.36,374.15a3,3,0,0,1-1.48-.3c-.82-.56-2.56-4.31-.81-14.77,1.73-10.28,6.4-24.42,13.52-40.9,15.13-35,40-78.42,70.13-122.19,27.43-39.9,56.68-76.35,82.37-102.63,27.9-28.54,45.44-38.71,52.56-38.71v-7m0,0c-23.4,0-83.18,60.72-140.69,144.37-62.73,91.25-99,175.24-81,187.6a9.39,9.39,0,0,0,5.45,1.53c23.4,0,83.18-60.72,140.69-144.37,62.73-91.25,99-175.24,81-187.6a9.39,9.39,0,0,0-5.45-1.53Z"/><path class="cls-1" d="M138,37.9v71c0,3.86,6,3.87,6,0v-71c0-3.86-6-3.87-6,0Z"/><path class="cls-1" d="M138,131.9v166c0,2.24-.06,4.49,0,6.73v.3c0,3.86,6,3.87,6,0v-166c0-2.25.06-4.49,0-6.74v-.29c0-3.86-6-3.87-6,0Z"/><path class="cls-1" d="M163,161.9v66c0,3.86,6,3.87,6,0v-66c0-3.86-6-3.87-6,0Z"/><path class="cls-1" d="M190,37.9v95.56c0,4.4-.15,8.84,0,13.25v.19c0,3.86,6,3.87,6,0V51.34c0-4.41.15-8.84,0-13.25V37.9c0-3.86-6-3.87-6,0Z"/><path class="cls-1" d="M197,187.9V306.29c0,5.45-.16,10.93,0,16.38v.23c0,3.86,6,3.87,6,0V204.51c0-5.45.16-10.93,0-16.38v-.23c0-3.86-6-3.87-6,0Z"/><path class="cls-1" d="M255,293.9v-55c0-3.86-6-3.87-6,0v55c0,3.86,6,3.87,6,0Z"/><path class="cls-1" d="M255,201.9V112.43c0-4.11.15-8.25,0-12.35V99.9c0-3.86-6-3.87-6,0v89.47c0,4.11-.15,8.24,0,12.35v.18c0,3.86,6,3.87,6,0Z"/><path class="cls-1" d="M220,56.9V159.48c0,4.73-.15,9.49,0,14.22v.2c0,3.86,6,3.87,6,0V71.32c0-4.73.15-9.49,0-14.22v-.2c0-3.86-6-3.87-6,0Z"/><path class="cls-1" d="M251,2.9v61c0,3.86,6,3.87,6,0V2.9c0-3.86-6-3.87-6,0Z"/><path class="cls-1" d="M530.12,261.78l-9-7.56-21.73-18.15-26.3-22-22.73-19c-3.68-3.07-7.33-6.18-11-9.22l-.15-.12a3.08,3.08,0,0,0-4.24,0,3,3,0,0,0,0,4.24l9.05,7.56,21.73,18.15,26.3,22,22.73,19c3.68,3.08,7.33,6.18,11,9.22l.15.13a3.08,3.08,0,0,0,4.24,0,3,3,0,0,0,0-4.24Z"/><path class="cls-1" d="M573.12,261.78l-9-7.56-21.73-18.15-26.3-22-22.73-19c-3.68-3.07-7.33-6.18-11-9.22l-.15-.12a3.08,3.08,0,0,0-4.24,0,3,3,0,0,0,0,4.24l9.05,7.56,21.73,18.15,26.3,22,22.73,19c3.68,3.08,7.33,6.18,11,9.22l.15.13a3.08,3.08,0,0,0,4.24,0,3,3,0,0,0,0-4.24Z"/><path class="cls-1" d="M557.12,205.78l-12.53-11.52L524.71,176l-4.59-4.22a3,3,0,0,0-4.24,4.24l12.53,11.52,19.88,18.26,4.59,4.22a3,3,0,0,0,4.24-4.24Z"/><path class="cls-1" d="M593.12,235.78l-18.8-17.05-2.7-2.45a3.06,3.06,0,0,0-4.24,0,3,3,0,0,0,0,4.24l18.8,17,2.7,2.45a3.07,3.07,0,0,0,4.24,0,3,3,0,0,0,0-4.24Z"/><path class="cls-1" d="M613.12,196.78l-9-7.56-21.73-18.15-26.3-22-22.73-19c-3.68-3.07-7.33-6.18-11-9.22l-.15-.12a3.08,3.08,0,0,0-4.24,0,3,3,0,0,0,0,4.24l9,7.56,21.73,18.15,26.3,22,22.73,19c3.68,3.08,7.33,6.18,11,9.22l.15.13a3.08,3.08,0,0,0,4.24,0,3,3,0,0,0,0-4.24Z"/><path class="cls-1" d="M616.12,158.78l-9-7.56-21.73-18.15-26.3-22-22.73-19c-3.68-3.07-7.33-6.18-11-9.22l-.15-.12a3.08,3.08,0,0,0-4.24,0,3,3,0,0,0,0,4.24l9,7.56,21.73,18.15,26.3,22,22.73,19c3.68,3.08,7.33,6.18,11,9.22l.15.13a3.08,3.08,0,0,0,4.24,0,3,3,0,0,0,0-4.24Z"/><circle class="cls-2" cx="448.5" cy="112.4" r="57"/></g></g></svg>